# xmcd CD database file
#
# Track frame offsets:
#	150
#	9187
#	28087
#	42257
#	60307
#	83265
#	104132
#	125040
#	145290
#	162507
#	180270
#	201335
#	223550
#	244277
#	261210
#	280950
#	295635
#	308930
#
# Disc length: 4362 seconds
#
# Revision: 2
# Processed by: cddbd v1.5.2PL0 Copyright (c) Steve Scherf et al.
# Submitted via: CDex 1.51
#
DISCID=04110812
DTITLE=蘇永康 - 好蘇永康精選
DYEAR=1996
DGENRE=Jazz
TTITLE0=1
TTITLE1=假使有日能忘記
TTITLE2=山水有相逢
TTITLE3=有人喜歡藍
TTITLE4=絕情
TTITLE5=I Like You
TTITLE6=男人不該讓女人流淚
TTITLE7=從不喜歡孤單一個
TTITLE8=最深刻的愛
TTITLE9=燈火欄柵處
TTITLE10=讓我暖一些
TTITLE11=如果這是我愛你最好的距離
TTITLE12=一人精彩
TTITLE13=親您
TTITLE14=落葉
TTITLE15=紅
TTITLE16=識得繼續笑
TTITLE17=沒有季節的火花
EXTD=YEAR: 1996
EXTT0=
EXTT1=
EXTT2=
EXTT3=
EXTT4=
EXTT5=
EXTT6=
EXTT7=
EXTT8=
EXTT9=
EXTT10=
EXTT11=
EXTT12=
EXTT13=
EXTT14=
EXTT15=
EXTT16=
EXTT17=
PLAYORDER=
